<?xml version="1.0" encoding="UTF-8"?>
<svg width="18px" height="22px" viewBox="0 0 18 22" version="1.1" xmlns="http://www.w3.org/2000/svg" xmlns:xlink="http://www.w3.org/1999/xlink" fill="#ffed00">
    <!-- Generator: Sketch 59 (86127) - https://sketch.com -->
    <title>Group</title>
    <desc>Created with Sketch.</desc>
    <g id="Page-2---Raw-Materials" stroke="none" stroke-width="1" fill="none" fill-rule="evenodd">
        <g id="DetergentDB-02-RawMaterials-01-Overview-01" transform="translate(-23.000000, -353.000000)" fill="#ffed00" fill-rule="nonzero">
            <g id="LEFT-MENU">
                <g id="Group-2" transform="translate(20.000000, 140.000000)">
                    <g id="Group" transform="translate(3.000000, 213.000000)">
                        <g id="a-link">
                            <g id="a">
                                <path d="M13.0454054,4.38810811 C13.0452506,3.2146509 12.6290343,2.21176802 11.7967568,1.37945946 C10.9730265,0.555760135 9.97014358,0.143507883 8.78810811,0.142702703 C7.60604167,0.143507883 6.59919482,0.555760135 5.76756757,1.37945946 C4.94318694,2.21176802 4.53093468,3.2146509 4.53081081,4.38810811 L4.53081081,6.87351351 C4.53161599,8.05554899 4.94386824,9.05843187 5.76756757,9.88216216 C6.59919482,10.7137584 7.60604167,11.1299747 8.78810811,11.1308108 C9.97014358,11.1299747 10.9730265,10.7137584 11.7967568,9.88216216 C12.628353,9.05843187 13.0445693,8.05554899 13.0454054,6.87351351 L13.0454054,4.38810811 M6.94486486,2.55675676 C7.45302646,2.05646115 8.06744088,1.80673142 8.78810811,1.80756547 C9.50874437,1.80673142 10.1191948,2.05646115 10.6194595,2.55675676 C11.1269707,3.06423705 11.3806644,3.6746875 11.3805425,4.38810811 L11.3805425,6.87351351 C11.3813457,7.59414977 11.127652,8.20460023 10.6194595,8.70486486 C10.1191948,9.21305743 9.50874437,9.46675113 8.78810811,9.46594786 C8.06744088,9.46675113 7.45302646,9.21305743 6.94486486,8.70486486 C6.44456926,8.20460023 6.19483953,7.59414977 6.19567358,6.87351351 L6.19567358,4.38810811 C6.19552083,3.6746875 6.44525056,3.06423705 6.94486486,2.55675676 M17.3145946,21.4886486 C17.4810811,21.3300591 17.5643682,21.1358249 17.5643682,20.9059459 L17.5643682,19.5978378 C17.571478,17.4703041 16.7033699,15.6627365 14.96,14.1751351 L14.96,14.1632432 C13.2682545,12.7280405 11.2149212,12.0105631 8.8,12.0108107 C6.39520552,12.0158896 4.34583615,12.7333671 2.65189189,14.1632432 L2.64,14.1632432 C0.895793919,15.6566047 0.0276858108,17.4681363 0.035621026,19.5978378 L0.035621026,20.9059459 C0.035621026,21.1358249 0.114954955,21.3300591 0.273513514,21.4886486 C0.440030968,21.6551351 0.638229167,21.7383784 0.868108108,21.7383784 L16.7318919,21.7383784 C16.9617708,21.7383784 17.1560051,21.6551351 17.3145946,21.4886486 M3.72216216,15.4356757 L3.72216216,15.4356757 C5.1201098,14.2572325 6.81272241,13.6705659 8.8,13.6756426 C10.7899409,13.6759234 12.4825535,14.2625901 13.8778378,15.4356757 L13.8897297,15.4356757 C15.2223958,16.5828097 15.8923057,17.9701971 15.8994595,19.5978378 L15.8994595,20.0735135 L1.70054054,20.0735135 L1.70054054,19.5978378 C1.70849944,17.9697016 2.38237331,16.5823142 3.72216216,15.4356757 Z" id="Shape"></path>
                            </g>
                        </g>
                    </g>
                </g>
            </g>
        </g>
    </g>
</svg>