<?xml version="1.0" encoding="UTF-8"?>
<svg width="16px" height="24px" viewBox="0 0 16 24" version="1.1" xmlns="http://www.w3.org/2000/svg" xmlns:xlink="http://www.w3.org/1999/xlink">
    <!-- Generator: Sketch 59 (86127) - https://sketch.com -->
    <title>Shape Copy</title>
    <desc>Created with Sketch.</desc>
    <g id="Page-2---Raw-Materials" stroke="none" stroke-width="1" fill="none" fill-rule="evenodd">
        <g id="DetergentDB-02-RawMaterials-01-Overview-01" transform="translate(-23.000000, -152.000000)" fill="#ffed00">
            <g id="LEFT-MENU">
                <g id="Group-2" transform="translate(20.000000, 140.000000)">
                    <path d="M16.4237288,15.049702 C16.9027676,15.2991132 17.2726389,15.7572126 17.3810274,16.299155 L18.2822903,20.8054698 C18.3808223,21.2981296 18.4576271,22.0747155 18.4576271,22.5772007 L18.4576271,34.3719519 C18.4576271,35.2711521 17.7305086,36 16.8305409,36 L4.62708626,36 C3.72970739,36 3,35.2717688 3,34.3762914 L3,23.7932001 C3,23.1458115 3.31294645,22.3216715 3.74365054,21.8371294 L9.17581908,15.7259398 C9.45553871,15.4112551 9.87885409,15.1492979 10.3220339,14.9955226 L10.3220339,12.8135593 C10.3220339,12.3642431 10.6862768,12 11.1355932,12 L15.6101695,12 C16.0594859,12 16.4237288,12.3642431 16.4237288,12.8135593 L16.4237288,15.049702 L16.4237288,15.049702 Z M16.8305409,34.3728814 C16.8310095,34.3728814 16.8305085,22.5772007 16.8305085,22.5772007 C16.8305085,22.1818007 16.7642749,21.5121026 16.6867692,21.1245738 L15.7855063,16.618259 C15.7730518,16.5559871 15.6738818,16.4745763 15.6134708,16.4745763 L11.1322919,16.4745763 C10.9175524,16.4745763 10.534583,16.6464683 10.3919427,16.8069384 L4.95977414,22.918128 C4.79398165,23.1046446 4.62711864,23.5440761 4.62711864,23.7932001 L4.62711864,34.3762914 C4.62711864,34.3728809 16.8305409,34.3728814 16.8305409,34.3728814 Z M14.7966102,14.8474576 L14.7966102,13.6271186 L11.9491525,13.6271186 L11.9491525,14.8474576 L14.7966102,14.8474576 Z M11.3220339,22.1709539 L11.3220339,30.710402 C11.3220339,31.6099615 10.5969901,32.3389831 9.69568757,32.3389831 L8.0670243,32.3389831 C7.16932179,32.3389831 6.44067797,31.6113738 6.44067797,30.7142807 L6.44067797,25.8280922 C6.44067797,25.1816978 6.75783089,24.3508373 7.18719959,23.8677974 L9.35938862,21.4240849 C10.1550884,20.5289227 11.3220339,20.9696351 11.3220339,22.1709539 Z M8.40332324,24.9487965 C8.23819868,25.1345614 8.06779661,25.5809719 8.06779661,25.8280922 L8.06779661,30.7118644 L9.69513243,30.7118644 C9.69500649,30.7115915 9.69491525,23.4957555 9.69491525,23.4957555 L8.40332324,24.9487965 Z" id="Shape-Copy"></path>
                </g>
            </g>
        </g>
    </g>
</svg>