<?xml version="1.0" encoding="UTF-8"?>
<svg width="18px" height="19px" viewBox="0 0 18 19" version="1.1" xmlns="http://www.w3.org/2000/svg" xmlns:xlink="http://www.w3.org/1999/xlink">
    <!-- Generator: Sketch 59 (86127) - https://sketch.com -->
    <title>edit_outlined</title>
    <desc>Created with Sketch.</desc>
    <g id="Page-2---Raw-Materials" stroke="none" stroke-width="1" fill="none" fill-rule="evenodd">
        <g id="DetergentDB-02-RawMaterials-01-Overview-03-HOVER" transform="translate(-1168.000000, -235.000000)" fill="#646464" fill-rule="nonzero">
            <g id="edit_outlined" transform="translate(1168.000000, 235.000000)">
                <path d="M3.25223214,14.2857143 C3.296875,14.2857143 3.34151786,14.28125 3.38616071,14.2745536 L7.140625,13.6160714 C7.18526786,13.6071429 7.22767857,13.5870536 7.25892857,13.5535714 L16.7209821,4.09151786 C16.7627741,4.04981147 16.7862598,3.99319408 16.7862598,3.93415179 C16.7862598,3.87510949 16.7627741,3.8184921 16.7209821,3.77678571 L13.0111607,0.0647321429 C12.96875,0.0223214286 12.9129464,0 12.8526786,0 C12.7924107,0 12.7366071,0.0223214286 12.6941964,0.0647321429 L3.23214286,9.52678571 C3.19866071,9.56026786 3.17857143,9.60044643 3.16964286,9.64508929 L2.51116071,13.3995536 C2.46707656,13.6423173 2.54558357,13.8912012 2.72098214,14.0647321 C2.86830357,14.2075893 3.05357143,14.2857143 3.25223214,14.2857143 L3.25223214,14.2857143 Z M4.75669643,10.3928571 L12.8526786,2.29910714 L14.4888393,3.93526786 L6.39285714,12.0290179 L4.40848214,12.3794643 L4.75669643,10.3928571 L4.75669643,10.3928571 Z M17.1428571,16.1607143 L0.714285714,16.1607143 C0.319196429,16.1607143 0,16.5370301 0,17.0028195 L0,17.950188 C0,18.0659774 0.0803571429,18.1607143 0.178571429,18.1607143 L17.6785714,18.1607143 C17.7767857,18.1607143 17.8571429,18.0659774 17.8571429,17.950188 L17.8571429,17.0028195 C17.8571429,16.5370301 17.5379464,16.1607143 17.1428571,16.1607143 Z" id="Shape"></path>
            </g>
        </g>
    </g>
</svg>