<?xml version="1.0" encoding="UTF-8"?>
<svg width="20px" height="19px" viewBox="0 0 20 19" version="1.1" xmlns="http://www.w3.org/2000/svg" xmlns:xlink="http://www.w3.org/1999/xlink">
    <!-- Generator: Sketch 59 (86127) - https://sketch.com -->
    <title>Group</title>
    <desc>Created with Sketch.</desc>
    <g id="Page-2---Raw-Materials" stroke="none" stroke-width="1" fill="none" fill-rule="evenodd">
        <g id="DetergentDB-02-RawMaterials-01-Overview-01" transform="translate(-22.000000, -404.000000)" fill="#ffed00" fill-rule="nonzero">
            <g id="LEFT-MENU">
                <g id="Group-2" transform="translate(20.000000, 140.000000)">
                    <g id="Group" transform="translate(2.000000, 264.000000)">
                        <path d="M13.8125,13.6914429 L13.8125,14.6581948 L4.33333333,14.6581948 C4.08333333,14.6581948 3.83333333,14.7502664 3.64583333,14.9113917 L1.41666667,16.8218777 L1.41666667,1.92929454 L13.8125,1.92929454 L13.8125,6.32571398 L15.125,4.69144288 L15.125,1.72213342 C15.125,1.03159633 14.6041667,0.479166667 14,0.479166667 L1.22916667,0.479166667 C0.604166667,0.479166667 0.104166667,1.03159633 0.104166667,1.72213342 L0.104166667,17.213182 C0.104166667,17.696558 0.333333333,18.1108802 0.729166667,18.3410592 C0.895833333,18.4331309 1.0625,18.4791667 1.22916667,18.4791667 C1.45833333,18.4791667 1.70833333,18.3870951 1.91666667,18.2259697 L4.33333333,16.1083227 L14,16.1083227 C14.625,16.1083227 15.125,15.5328751 15.125,14.8653559 L15.125,12.3103687 L14.2916667,13.3461743 C14.1666667,13.4842818 14,13.6223892 13.8125,13.6914429 Z" id="Path"></path>
                        <path d="M3.9375,5.66666667 L11.2708333,5.66666667 C11.6458333,5.66666667 11.9375,5.375 11.9375,5 C11.9375,4.64583333 11.6458333,4.33333333 11.2708333,4.33333333 L3.9375,4.33333333 C3.5625,4.33333333 3.27083333,4.64583333 3.27083333,5 C3.29166667,5.375 3.58333333,5.66666667 3.9375,5.66666667 Z" id="Path"></path>
                        <path d="M11.9375,8.16666667 C11.9375,7.8125 11.6458333,7.5 11.2708333,7.5 L3.9375,7.5 C3.5625,7.5 3.27083333,7.8125 3.27083333,8.16666667 C3.27083333,8.54166667 3.5625,8.83333333 3.9375,8.83333333 L11.2708333,8.83333333 C11.6458333,8.83333333 11.9375,8.54166667 11.9375,8.16666667 Z" id="Path"></path>
                        <path d="M3.29166667,11.3333333 C3.29166667,11.7083333 3.58333333,12 3.95833333,12 L10.2916667,12 L10.5208333,10.6875 L3.9375,10.6875 C3.58333333,10.6875 3.29166667,10.9791667 3.29166667,11.3333333 Z" id="Path"></path>
                        <polygon id="Rectangle" transform="translate(15.567631, 8.955361) rotate(-48.133310) translate(-15.567631, -8.955361) " points="12.6405467 7.70536093 18.4947158 7.70536093 18.4947158 10.205362 12.6405467 10.205362"></polygon>
                        <path d="M19.7708333,5.58333333 L18.4791667,4.41666667 C18.3333333,4.27083333 18.0833333,4.29166667 17.9583333,4.4375 L17.1875,5.3125 L19.0416667,6.97916667 L19.8125,6.10416667 C19.9375,5.95833333 19.9166667,5.70833333 19.7708333,5.58333333 Z" id="Path"></path>
                        <path d="M11.75,13.6875 L13.3333333,13.2291667 C13.3958333,13.2083333 13.4583333,13.1666667 13.5,13.125 L13.9583333,12.625 L12.1041667,10.9583333 L11.6458333,11.4583333 C11.6041667,11.5208333 11.5625,11.5833333 11.5625,11.6458333 L11.2916667,13.2708333 C11.25,13.5416667 11.5,13.75 11.75,13.6875 Z" id="Path"></path>
                    </g>
                </g>
            </g>
        </g>
    </g>
</svg>