<?xml version="1.0" encoding="UTF-8"?>
<svg width="20px" height="19px" viewBox="0 0 20 19" version="1.1" xmlns="http://www.w3.org/2000/svg" xmlns:xlink="http://www.w3.org/1999/xlink">
    <!-- Generator: Sketch 59 (86127) - https://sketch.com -->
    <title>raw-material</title>
    <desc>Created with Sketch.</desc>
    <g id="Page-1---Detergents" stroke="none" stroke-width="1" fill="none" fill-rule="evenodd">
        <g id="DetergentDB-01-Detergents-01-Overview-01" transform="translate(-20.000000, -204.000000)" fill="#ffed00" fill-rule="nonzero">
            <g id="LEFT-MENU">
                <g id="Group-2" transform="translate(20.000000, 140.000000)">
                    <g id="raw-material" transform="translate(0.000000, 64.000000)">
                        <path d="M18.7110205,13.6676945 C17.7272123,13.0790648 16.5281236,13.2369898 15.7202434,13.9739733 L14.4933767,13.2393826 L14.4933767,9.60949947 C14.4933767,9.23382929 14.2989299,8.88447996 13.9841112,8.69784128 L10.8359248,6.82427602 L10.8359248,5.21870477 C11.8590854,4.85978422 12.5952054,3.85959229 12.5952054,2.67994009 C12.5952054,1.19879463 11.4354691,0 10.0025813,0 C8.56969353,0 7.4099572,1.19879463 7.4099572,2.67994009 C7.4099572,3.85959229 8.14607726,4.85978422 9.16923785,5.21870477 L9.16923785,6.82427602 L6.02105143,8.69784128 C5.70623278,8.88447996 5.51178598,9.23382929 5.51178598,9.60949947 L5.51178598,13.2369898 L4.28491921,13.9715805 C3.47703901,13.234597 2.27563552,13.076672 1.2941421,13.6653017 C0.0557011198,14.4070708 -0.365600299,16.0437485 0.34505649,17.3238984 C1.05802812,18.6040484 2.63443618,19.0443243 3.86824747,18.3049479 C4.85205573,17.7163182 5.31965401,16.5582013 5.1090033,15.4622972 L6.23633182,14.7851338 L9.49100102,16.7233047 C9.64841034,16.8166241 9.82433841,16.8644801 10.0002665,16.8644801 C10.1761945,16.8644801 10.3521226,16.8166241 10.5095319,16.7233047 L13.7618863,14.7875266 L14.8892148,15.46469 C14.6785641,16.5582013 15.1484772,17.718711 16.1299706,18.3073407 C17.3637819,19.0467171 18.9425048,18.608834 19.6531616,17.3262912 C20.3661332,16.0437485 19.9448318,14.4070708 18.7110205,13.6676945 Z M3.13212741,16.9793347 C2.87817996,17.131371 2.57605052,17.1724105 2.29272497,17.0933542 C2.00939942,17.0142979 1.7682886,16.8216782 1.6228498,16.5582013 C1.31729053,16.0102492 1.49784828,15.306765 2.02794732,14.9909149 C2.28189478,14.8388786 2.58402421,14.7978391 2.86734976,14.8768954 C3.15067532,14.9559517 3.39178613,15.1485714 3.53722493,15.4120483 C3.8427842,15.9600004 3.66222645,16.6634846 3.13212741,16.9793347 L3.13212741,16.9793347 Z M8.88914185,2.67994009 C8.90148832,2.05475144 9.39532129,1.55460087 10.0002665,1.55460087 C10.6052117,1.55460087 11.0990446,2.05475144 11.1113911,2.67994009 C11.0990446,3.30512874 10.6052117,3.80527931 10.0002665,3.80527931 C9.39532129,3.80527931 8.90148832,3.30512874 8.88914185,2.67994009 L8.88914185,2.67994009 Z M12.8243749,13.35663 L10.0002665,15.038771 L7.17615806,13.35663 L7.17615806,9.99713366 L10.0002665,8.31499269 L12.8243749,9.99713366 L12.8243749,13.35663 L12.8243749,13.35663 Z M18.3776831,16.5605941 C18.0721239,17.1085461 17.3961897,17.2975776 16.8684055,16.9817275 C16.3406213,16.6658774 16.1577487,15.9623932 16.463308,15.4144411 C16.7688673,14.8664891 17.4448014,14.6774576 17.9725856,14.9933077 C18.5026847,15.3091578 18.6832424,16.0102492 18.3776831,16.5605941 Z" id="Shape"></path>
                    </g>
                </g>
            </g>
        </g>
    </g>
</svg>