<?xml version="1.0" encoding="UTF-8"?>
<svg width="26px" height="26px" viewBox="0 0 26 26" version="1.1" xmlns="http://www.w3.org/2000/svg" xmlns:xlink="http://www.w3.org/1999/xlink">
    <!-- Generator: Sketch 59 (86127) - https://sketch.com -->
    <title>Shape</title>
    <desc>Created with Sketch.</desc>
    <g id="Page-2---Raw-Materials" stroke="none" stroke-width="1" fill="none" fill-rule="evenodd">
        <g id="DetergentDB-02-RawMaterials-01-Overview-01" transform="translate(-19.000000, -253.000000)" fill="#ffed00" fill-rule="nonzero" stroke="#ffed00">
            <g id="LEFT-MENU">
                <g id="Group-2" transform="translate(20.000000, 140.000000)">
                    <path d="M17.2969138,131.733617 C17.3018906,131.725694 17.3075705,131.716054 17.3161881,131.701429 C17.3093381,131.713058 17.304338,131.721546 17.2992196,131.729417 Z M17.1841908,131.856904 C17.1823158,131.858384 17.1809339,131.859378 17.1789303,131.86082 C17.1805836,131.859635 17.1817846,131.858774 17.1835763,131.857327 Z M18.8293214,125.99709 L18.8172041,125.709349 C18.7488463,124.086097 18.1079418,122.566649 17.0238839,121.387043 L16.8270928,121.172907 L16.6129573,120.976116 C15.4333509,119.892058 13.913903,119.251154 12.2906511,119.182796 L12,119.170556 L11.7093489,119.182796 C10.086097,119.251154 8.56664907,119.892058 7.38704276,120.976116 L7.17290713,121.172907 L6.97611618,121.387043 C5.8920582,122.566649 5.2511537,124.086097 5.18279587,125.709349 L5.17067863,125.99709 L5.18318427,126.290389 C5.25180201,127.899703 5.8879054,129.43316 6.9745236,130.614124 L7.16401008,130.820063 L7.38616396,131.023479 C7.40948894,131.045169 7.40948894,131.045169 7.42698222,131.061951 L7.42699841,131.061966 C7.43617409,131.070741 7.44075825,131.075125 7.45053717,131.084868 C7.43958443,131.075438 7.43465004,131.071225 7.43146615,131.068654 C7.43611547,131.072326 7.4410682,131.076504 7.45170614,131.085487 C7.44702751,131.081506 7.44114117,131.07749 7.36067931,131.022604 L7.45330764,131.087633 C7.45843634,131.092759 7.46493694,131.099293 7.47385978,131.108283 C7.47012792,131.104022 7.46617855,131.099515 7.46199396,131.094739 C7.45972707,131.092786 7.45762875,131.090977 7.455684,131.089302 L7.45761649,131.090658 C8.62715298,132.139018 10.1255501,132.743703 11.7094966,132.810875 L11.9999984,132.823195 L12.2905036,132.810875 C13.8382789,132.745238 15.3043694,132.166349 16.5143252,131.12102 C16.5084382,131.126731 16.5019183,131.133056 16.4946905,131.140069 C16.473857,131.166589 16.4669668,131.175359 16.4571097,131.191121 C16.466927,131.176743 16.480034,131.161289 16.5209381,131.115301 C16.5469913,131.092738 16.5729255,131.069959 16.5987389,131.046964 C16.5695072,131.068182 16.559645,131.075341 16.5512506,131.082528 C16.5686028,131.068458 16.5703632,131.06714 16.5739218,131.064576 C16.5693432,131.067875 16.5668944,131.070056 16.5254364,131.110246 C16.5313679,131.103583 16.5378486,131.096315 16.5449495,131.08835 C16.554665,131.079501 16.554665,131.079501 16.5730016,131.061966 L16.5730183,131.06195 C16.5905113,131.045169 16.5905113,131.045169 16.6138358,131.023479 L16.8362048,130.819866 L17.0254982,130.61414 C18.1121075,129.433205 18.7481964,127.89974 18.8168157,126.290389 L18.8293214,125.99709 Z M19.2813828,118.718702 L19.4361836,118.80234 C19.527995,118.851945 19.621455,118.876928 19.7139814,118.876928 C19.8727741,118.876928 20.0195855,118.816143 20.1317605,118.704051 C20.3617508,118.473896 20.3617252,118.098268 20.1318653,117.868244 C19.9147293,117.651268 19.512867,117.651322 19.2960491,117.86814 C19.1128255,118.051493 19.074962,118.334403 19.1985831,118.564552 L19.2813828,118.718702 Z M12,115.702596 L12.1676031,115.652159 C12.417665,115.576906 12.5909091,115.350085 12.5909091,115.090909 C12.5909091,114.76559 12.3253187,114.5 12,114.5 C11.6746813,114.5 11.4090909,114.76559 11.4090909,115.090909 C11.4090909,115.350085 11.582335,115.576906 11.8323969,115.652159 L12,115.702596 Z M4.71867136,118.718653 L4.80143717,118.564568 C4.92503848,118.33446 4.88714528,118.051464 4.70412028,117.868309 C4.48701222,117.651441 4.08515117,117.651387 3.86823957,117.868139 C3.63824923,118.098294 3.63827481,118.473921 3.86813461,118.703946 C3.98042517,118.816153 4.12724105,118.876928 4.28601868,118.876928 C4.37849667,118.876928 4.47194697,118.851941 4.56381979,118.802309 L4.71867136,118.718653 Z M1.70259644,126 L1.65215857,125.832397 C1.57690589,125.582335 1.35008462,125.409091 1.09090909,125.409091 C0.765590427,125.409091 0.5,125.674681 0.5,126 C0.5,126.325319 0.765590427,126.590909 1.09090909,126.590909 C1.35008462,126.590909 1.57690589,126.417665 1.65215857,126.167603 L1.70259644,126 Z M4.71898234,133.281978 L4.57001806,133.205431 C4.3375403,133.08597 4.03919229,133.125122 3.86823957,133.295949 C3.63824923,133.526104 3.63827481,133.901732 3.86813461,134.131756 C3.98042517,134.243964 4.12724105,134.304738 4.28601868,134.304738 C4.44495294,134.304738 4.59176744,134.243961 4.70395091,134.13186 C4.88717456,133.948507 4.92503807,133.665597 4.8014169,133.435448 L4.71898234,133.281978 Z M7.54258177,131.190617 C7.54752745,131.198507 7.55318853,131.208117 7.56171745,131.222595 C7.5549289,131.211075 7.54996335,131.202647 7.54488959,131.194838 Z M7.43146615,131.068654 C7.42908257,131.066728 7.42768007,131.065723 7.42546796,131.064137 C7.42839575,131.066244 7.42999618,131.067395 7.43282488,131.069675 Z M7.45170614,131.085487 C7.45209424,131.085815 7.45248991,131.086149 7.45289333,131.08649 C7.4524982,131.086148 7.45213197,131.085832 7.45175854,131.085515 Z M12,136.297404 L11.8323969,136.347841 C11.582335,136.423094 11.4090909,136.649915 11.4090909,136.909091 C11.4090909,137.23441 11.6746813,137.5 12,137.5 C12.3253187,137.5 12.5909091,137.23441 12.5909091,136.909091 C12.5909091,136.649915 12.417665,136.423094 12.1676031,136.347841 L12,136.297404 Z M16.5739218,131.064576 C16.5741193,131.064434 16.5743222,131.064288 16.574532,131.064137 C16.5743267,131.064284 16.5741283,131.064427 16.5739338,131.064567 Z M19.2810173,133.281926 L19.1985628,133.435432 C19.0749615,133.66554 19.1128547,133.948536 19.2959451,134.131756 C19.4082432,134.243972 19.5550622,134.304738 19.7139813,134.304738 C19.8727741,134.304738 20.0195855,134.243953 20.1317604,134.131861 C20.3617508,133.901706 20.3617252,133.526079 20.1318649,133.296054 C19.9607285,133.125043 19.6623713,133.085875 19.4300058,133.205333 L19.2810173,133.281926 Z M22.2974036,126 L22.3478414,126.167603 C22.4230941,126.417665 22.6499154,126.590909 22.9090909,126.590909 C23.2344096,126.590909 23.5,126.325319 23.5,126 C23.5,125.674681 23.2344096,125.409091 22.9090909,125.409091 C22.6499154,125.409091 22.4230941,125.582335 22.3478414,125.832397 L22.2974036,126 Z M19.7369744,118.309011 C19.7370255,118.308961 19.7370764,118.30891 19.7371269,118.30886 L19.7368224,118.309164 C19.7368733,118.309113 19.7369239,118.309062 19.7369744,118.309011 Z M19.0295635,117.60221 C19.2116272,117.419912 19.4563677,117.318638 19.7139814,117.318638 C19.9714974,117.318638 20.2163078,117.419956 20.3979426,117.601905 C20.7754815,117.979444 20.775579,118.592648 20.398399,118.969828 C20.0265027,119.342365 19.4011099,119.342168 19.0298679,118.970284 C18.6523797,118.592796 18.6522315,117.979706 19.0295634,117.60221 Z M19.0295634,117.60221 C19.0296142,117.602159 19.029665,117.602108 19.0297157,117.602057 L19.0294113,117.602362 C19.029462,117.602311 19.0295127,117.60226 19.0295635,117.60221 Z M4.97036044,118.970056 C4.59848319,119.342168 3.97315043,119.342339 3.60205738,118.970284 C3.22451849,118.592745 3.22442104,117.979542 3.60160078,117.602362 C3.78365095,117.419998 4.02844401,117.318638 4.28601865,117.318638 C4.54364546,117.318638 4.78846789,117.419927 4.97013211,117.601905 C5.34764565,117.979419 5.34776848,118.592566 4.97036044,118.970056 Z M1.09090909,126.967532 C0.556954228,126.967532 0.123376623,126.533955 0.123376623,126 C0.123376623,125.466045 0.556954228,125.032468 1.09090909,125.032468 C1.62486395,125.032468 2.05844156,125.466045 2.05844156,126 C2.05844156,126.533955 1.62486395,126.967532 1.09090909,126.967532 Z M4.97036044,134.397866 C4.59848319,134.769979 3.97315043,134.77015 3.60205738,134.398095 C3.22451849,134.020556 3.22442104,133.407352 3.60160078,133.030173 C3.78365095,132.847808 4.02844401,132.746449 4.28601865,132.746449 C4.54364546,132.746449 4.78846789,132.847737 4.97013211,133.029716 C5.34764565,133.407229 5.34776848,134.020376 4.97036044,134.397866 Z M19.7369744,133.736821 C19.7370255,133.736771 19.7370764,133.736721 19.7371269,133.73667 L19.7368224,133.736975 C19.7368733,133.736924 19.7369239,133.736873 19.7369744,133.736822 Z M19.0295635,133.03002 C19.2116272,132.847723 19.4563677,132.746449 19.7139814,132.746449 C19.9714974,132.746449 20.2163078,132.847767 20.3979426,133.029716 C20.7754815,133.407255 20.775579,134.020458 20.398399,134.397638 C20.0265027,134.770175 19.4011099,134.769979 19.0298679,134.398095 C18.6523797,134.020607 18.6522315,133.407517 19.0295634,133.03002 Z M19.0295634,133.03002 C19.0296142,133.029969 19.029665,133.029919 19.0297157,133.029868 L19.0294113,133.030173 C19.029462,133.030122 19.0295127,133.030071 19.0295635,133.03002 Z M11.0324675,115.090909 C11.0324675,114.556954 11.4660451,114.123377 12,114.123377 C12.5339549,114.123377 12.9675325,114.556954 12.9675325,115.090909 C12.9675325,115.624864 12.5339549,116.058442 12,116.058442 C11.4660451,116.058442 11.0324675,115.624864 11.0324675,115.090909 Z M12.9675325,136.909091 C12.9675325,137.443046 12.5339549,137.876623 12,137.876623 C11.4660451,137.876623 11.0324675,137.443046 11.0324675,136.909091 C11.0324675,136.375136 11.4660451,135.941558 12,135.941558 C12.5339549,135.941558 12.9675325,136.375136 12.9675325,136.909091 Z M16.6649368,131.483625 C15.3658333,132.593339 13.7155851,133.201299 12,133.201299 C10.2843918,133.201299 8.63412215,132.593323 7.33505951,131.483622 C7.33264916,131.481658 7.32985559,131.47938 7.32659545,131.476721 L7.15317577,131.056863 C7.15629748,131.017849 7.16040324,130.986 7.16763089,130.936953 C7.16764644,130.936846 7.16764644,130.936846 7.16766198,130.936739 C7.17164454,130.90926 7.17164454,130.90926 7.17383644,130.891604 C7.17441872,130.886517 7.17441872,130.886517 7.17500539,130.881382 C7.17539058,130.878009 7.17539058,130.878009 7.17577798,130.874616 C7.18710928,130.775359 7.19287106,130.729548 7.20259196,130.669167 C7.21426183,130.596701 7.22573378,130.539223 7.24969525,130.427097 C7.25237724,130.414535 7.25237724,130.414535 7.25512706,130.401609 L7.25513464,130.401573 C7.27461725,130.309988 7.28409611,130.267826 7.29870843,130.212001 C7.31555096,130.14766 7.33192232,130.093161 7.36139115,129.99994 C7.36421126,129.991023 7.36421126,129.991023 7.36699469,129.982227 C7.3675285,129.98054 7.3675285,129.98054 7.36806563,129.978842 C7.37216677,129.965858 7.37216677,129.965858 7.37639434,129.95242 C7.37691002,129.95078 7.37691002,129.95078 7.37742774,129.949134 C7.40425478,129.86384 7.41726486,129.82411 7.4364471,129.77182 C7.4583811,129.712031 7.47864935,129.662373 7.5155558,129.575468 C7.51876901,129.567903 7.51876901,129.567903 7.52194015,129.56044 C7.52435936,129.554746 7.52435936,129.554746 7.52672399,129.549178 C7.53311019,129.534095 7.53311019,129.534095 7.53977053,129.518291 C7.54019132,129.517292 7.54019132,129.517292 7.54061326,129.516291 C7.57257645,129.440322 7.59014174,129.399981 7.61345856,129.351239 C7.64017198,129.295415 7.66364325,129.250636 7.70820897,129.168367 C7.71106745,129.163091 7.71106745,129.163091 7.71389499,129.157872 C7.71897321,129.148499 7.71897321,129.148499 7.72397026,129.139263 C7.73308601,129.12236 7.73308601,129.12236 7.74273724,129.104357 C7.74284571,129.104155 7.74284571,129.104155 7.74295425,129.103952 C7.78008914,129.034582 7.80057949,128.997427 7.82732224,128.952783 C7.85880903,128.900235 7.8854667,128.859285 7.93778438,128.781249 C7.94036216,128.777404 7.94036216,128.777404 7.94291675,128.773594 C7.95021675,128.762705 7.95021675,128.762705 7.95727045,128.752164 C7.9684334,128.735406 7.9684334,128.735406 7.98037495,128.717357 C7.98084533,128.716645 7.98084533,128.716645 7.98131696,128.715932 C8.02311889,128.652661 8.04625017,128.618598 8.07618618,128.577767 C8.11175726,128.529267 8.14083026,128.492622 8.19991708,128.420152 C8.20190042,128.417719 8.20190042,128.417719 8.20387058,128.415303 C8.21419253,128.402642 8.21419253,128.402642 8.2240867,128.390472 C8.23787811,128.373411 8.23787811,128.373411 8.25287226,128.354709 L8.25288538,128.354692 C8.29896226,128.297135 8.32469388,128.265836 8.35760423,128.228693 C8.39714083,128.184076 8.42897683,128.15083 8.49402001,128.084715 C8.49623803,128.082461 8.49623803,128.082461 8.49844039,128.080222 C8.51113266,128.067319 8.51113266,128.067319 8.52312858,128.05508 C8.5387561,128.03902 8.5387561,128.03902 8.55594709,128.021184 C8.55624044,128.02088 8.55624044,128.02088 8.55653425,128.020575 C8.60612571,127.969046 8.63394994,127.940893 8.66938324,127.907634 C8.7128787,127.866818 8.747187,127.837083 8.81864995,127.776824 C8.82048607,127.775276 8.82048607,127.775276 8.82231197,127.773736 C8.83752708,127.760904 8.83752708,127.760904 8.85191727,127.748715 C8.86977653,127.733457 8.86977653,127.733457 8.88984416,127.7161 C8.88991987,127.716035 8.88991987,127.716035 8.88999559,127.715969 C8.94232896,127.670627 8.97206048,127.645574 9.00950885,127.616422 C9.05643289,127.579874 9.09322199,127.553547 9.16944795,127.500593 C9.17205835,127.49878 9.17205835,127.49878 9.17464865,127.49698 C9.19207398,127.484871 9.19207398,127.484871 9.20859881,127.47332 C9.22816715,127.459504 9.22816715,127.459504 9.25059106,127.443425 C9.25098113,127.443145 9.25098113,127.443145 9.25137204,127.442864 C9.30561057,127.4039 9.3366329,127.382268 9.37581794,127.357175 C9.4265519,127.324708 9.46575409,127.301868 9.54803601,127.255479 C9.55042615,127.254131 9.55042615,127.254131 9.5528002,127.252793 C9.57236339,127.241759 9.57236339,127.241759 9.59076837,127.231305 C9.61167493,127.219275 9.61167493,127.219275 9.6360991,127.204947 C9.63636689,127.20479 9.63636689,127.20479 9.63663509,127.204632 C9.69295387,127.171518 9.72551853,127.153003 9.76629673,127.131957 C9.82072259,127.103866 9.86224979,127.084653 9.95036885,127.045425 C9.95237195,127.044533 9.95237195,127.044533 9.9543642,127.043646 C9.9760652,127.033982 9.9760652,127.033982 9.99624934,127.024912 C10.0182048,127.014866 10.0182048,127.014866 10.0445435,127.002499 C10.0446508,127.002449 10.0446508,127.002449 10.0447581,127.002398 C10.1025368,126.975186 10.1364619,126.959836 10.1786464,126.942861 C10.2375971,126.919129 10.2821183,126.903478 10.3776047,126.871499 C10.3788302,126.871088 10.3788302,126.871088 10.3800519,126.870679 C10.4040362,126.862644 10.4040362,126.862644 10.426419,126.85506 C10.4486974,126.847321 10.4486974,126.847321 10.4764486,126.837311 C10.4768481,126.837166 10.4768481,126.837166 10.4772486,126.837022 C10.5342535,126.816379 10.5681802,126.804696 10.6104715,126.79215 C10.6763116,126.772638 10.7259817,126.760389 10.8329166,126.735757 C10.8345319,126.735385 10.8345319,126.735385 10.8361417,126.735014 C10.8598153,126.729558 10.8598153,126.729558 10.8824716,126.72427 C10.9033393,126.719214 10.9033393,126.719214 10.9315019,126.711933 C10.9320855,126.711782 10.9320855,126.711782 10.9326719,126.71163 C10.9861029,126.697732 11.0189007,126.689783 11.0595221,126.681857 C11.1403034,126.666091 11.2014515,126.657266 11.3344542,126.640279 C11.3346684,126.640251 11.3346684,126.640251 11.3348826,126.640224 C11.3523842,126.637988 11.3523842,126.637988 11.3691715,126.635829 C11.3849931,126.63362 11.3849931,126.63362 11.4107331,126.629495 C11.4110187,126.629449 11.4110187,126.629449 11.4113053,126.629402 C11.4569908,126.621972 11.4869036,126.617646 11.5237417,126.614067 C11.6824358,126.598703 11.8412123,126.590909 12,126.590909 C12.1587876,126.590909 12.3175641,126.598703 12.4764264,126.614083 C12.5130964,126.617646 12.5430093,126.621972 12.5886948,126.629402 C12.5889814,126.629448 12.5889814,126.629448 12.5892669,126.629494 C12.6150069,126.63362 12.6150069,126.63362 12.630567,126.635795 C12.6476187,126.637989 12.6476187,126.637989 12.6651231,126.640225 C12.6653354,126.640252 12.6653354,126.640252 12.6655478,126.640279 C12.7985496,126.657266 12.8596972,126.666091 12.9404564,126.681853 C12.9810994,126.689783 13.0138972,126.697732 13.0673281,126.71163 C13.0679146,126.711782 13.0679146,126.711782 13.0684982,126.711933 C13.0966607,126.719214 13.0966607,126.719214 13.1177548,126.724323 C13.1401849,126.729558 13.1401849,126.729558 13.1638585,126.735014 C13.1654688,126.735385 13.1654688,126.735385 13.1670845,126.735757 C13.2740188,126.76039 13.3236887,126.772638 13.3896511,126.792187 C13.4318199,126.804696 13.4657466,126.816379 13.5227514,126.837022 C13.5231516,126.837166 13.5231516,126.837166 13.5235507,126.83731 C13.5513022,126.847321 13.5513022,126.847321 13.5735093,126.855036 C13.5959639,126.862644 13.5959639,126.862644 13.6199481,126.870679 C13.6211699,126.871088 13.6211699,126.871088 13.6223954,126.871499 C13.7178818,126.903478 13.762403,126.919129 13.8212845,126.942833 C13.8635385,126.959836 13.8974642,126.975186 13.9552433,127.002399 C13.9553499,127.002449 13.9553499,127.002449 13.9554565,127.002499 C13.9817953,127.014866 13.9817953,127.014866 14.0035987,127.024844 C14.0239358,127.033982 14.0239358,127.033982 14.0456377,127.043647 C14.0476291,127.044533 14.0476291,127.044533 14.0496312,127.045425 C14.1377505,127.084653 14.1792774,127.103866 14.2336954,127.131953 C14.2744815,127.153003 14.3070462,127.171518 14.363365,127.204632 C14.3636332,127.204789 14.3636332,127.204789 14.363901,127.204947 C14.3883251,127.219275 14.3883251,127.219275 14.4092329,127.231306 C14.4276378,127.24176 14.4276378,127.24176 14.4472022,127.252794 C14.4495751,127.254132 14.4495751,127.254132 14.4519641,127.255479 C14.5342464,127.301868 14.5734482,127.324708 14.6243073,127.357255 C14.6633672,127.382268 14.6943895,127.4039 14.748628,127.442864 C14.7490189,127.443145 14.7490189,127.443145 14.749409,127.443425 C14.7718329,127.459504 14.7718329,127.459504 14.7914683,127.473367 C14.8079249,127.48487 14.8079249,127.48487 14.8253492,127.496979 C14.8279399,127.498779 14.8279399,127.498779 14.8305507,127.500592 C14.9067772,127.553547 14.9435668,127.579873 14.9903927,127.616345 C15.0279396,127.645574 15.0576711,127.670627 15.1100045,127.715969 C15.1100802,127.716035 15.1100802,127.716035 15.1101559,127.7161 C15.1302235,127.733457 15.1302235,127.733457 15.1480122,127.748655 C15.1624731,127.760904 15.1624731,127.760904 15.1776882,127.773736 C15.1795146,127.775276 15.1795146,127.775276 15.1813513,127.776825 C15.2528133,127.837083 15.2871216,127.866818 15.3306613,127.907676 C15.3660502,127.940893 15.3938744,127.969046 15.443466,128.020575 C15.4437602,128.02088 15.4437602,128.02088 15.4440539,128.021185 C15.4612445,128.039021 15.4612445,128.039021 15.4767287,128.054934 C15.4888674,128.067319 15.4888674,128.067319 15.5015597,128.080222 C15.503762,128.082461 15.503762,128.082461 15.5059801,128.084715 C15.5710232,128.15083 15.6028592,128.184076 15.6424123,128.228711 C15.6753062,128.265836 15.7010378,128.297135 15.7471147,128.354692 L15.7471278,128.354709 C15.762122,128.373411 15.762122,128.373411 15.7758709,128.390419 C15.7858069,128.402641 15.7858069,128.402641 15.7961283,128.415301 C15.7980981,128.417717 15.7980981,128.417717 15.8000811,128.420149 C15.8591692,128.492621 15.8882424,128.529266 15.9238643,128.577836 C15.9537498,128.618598 15.9768811,128.652661 16.018683,128.715932 C16.0191545,128.716645 16.0191545,128.716645 16.0196249,128.717356 C16.0315666,128.735406 16.0315666,128.735406 16.0426855,128.752098 C16.0497841,128.762706 16.0497841,128.762706 16.0570849,128.773596 C16.0596387,128.777405 16.0596387,128.777405 16.0622157,128.781249 C16.1145339,128.859286 16.1411911,128.900235 16.1727103,128.952837 C16.1994205,128.997427 16.2199109,129.034582 16.2570458,129.103952 C16.2571542,129.104154 16.2571542,129.104154 16.2572625,129.104356 C16.2669139,129.122359 16.2669139,129.122359 16.2760557,129.139311 C16.2810269,129.148499 16.2810269,129.148499 16.2861051,129.157872 C16.2889326,129.163091 16.2889326,129.163091 16.2917911,129.168367 C16.3363568,129.250636 16.3598281,129.295415 16.3865687,129.351296 C16.4098583,129.399981 16.4274236,129.440322 16.4593868,129.516291 C16.4598087,129.517292 16.4598087,129.517292 16.4602295,129.518291 C16.4668899,129.534095 16.4668899,129.534095 16.4732479,129.549111 C16.4756407,129.554746 16.4756407,129.554746 16.4780599,129.56044 C16.4812317,129.567904 16.4812317,129.567904 16.4844455,129.57547 C16.5213509,129.662374 16.5416192,129.712032 16.5635545,129.771825 C16.5827352,129.82411 16.5957453,129.86384 16.6225723,129.949134 C16.62309,129.95078 16.62309,129.95078 16.6236057,129.95242 C16.6278333,129.965858 16.6278333,129.965858 16.6319391,129.978857 C16.6324709,129.980538 16.6324709,129.980538 16.6330042,129.982223 C16.6357882,129.991021 16.6357882,129.991021 16.6386089,129.99994 C16.6680774,130.093159 16.6844491,130.14766 16.7012934,130.212008 C16.715904,130.267826 16.7253828,130.309988 16.7448654,130.401573 L16.744873,130.401609 C16.7476228,130.414535 16.7476228,130.414535 16.7503235,130.427184 C16.7742663,130.539223 16.7857382,130.596701 16.7974117,130.669189 C16.807129,130.729548 16.8128908,130.77536 16.8242221,130.874616 C16.8246098,130.878012 16.8246098,130.878012 16.8249952,130.881387 C16.8255816,130.886519 16.8255816,130.886519 16.8261823,130.891767 C16.8283555,130.90926 16.8283555,130.90926 16.8323381,130.936739 C16.8323536,130.936846 16.8323536,130.936846 16.8323692,130.936953 C16.8395968,130.986 16.8437026,131.017849 16.8468243,131.056863 L16.6734012,131.476724 C16.6701409,131.479383 16.6673472,131.481661 16.6649368,131.483625 Z M9.47402597,124.441558 C9.47402597,123.04833 10.6067716,121.915584 12,121.915584 C13.3932284,121.915584 14.525974,123.04833 14.525974,124.441558 C14.525974,125.834787 13.3932284,126.967532 12,126.967532 C10.6067716,126.967532 9.47402597,125.834787 9.47402597,124.441558 Z M16.4150801,130.650153 C16.4117584,130.631588 16.4087147,130.618077 16.3966235,130.567647 C16.3965127,130.567187 16.3965127,130.567187 16.3964015,130.566727 C16.3877199,130.530805 16.3877199,130.530805 16.3779571,130.487552 C16.3739744,130.469191 16.3739744,130.469191 16.3702109,130.451608 C16.3688215,130.445105 16.3688215,130.445105 16.3674571,130.438713 C16.3529861,130.371128 16.3477568,130.347873 16.3400083,130.31797 C16.323064,130.252471 16.3045501,130.191385 16.2674564,130.075736 C16.2576842,130.044866 16.2576842,130.044866 16.249164,130.017203 C16.2485854,130.015323 16.2485854,130.015323 16.2480118,130.01346 C16.2317448,129.960783 16.2265522,129.944602 16.2190111,129.923686 C16.1937073,129.853491 16.166532,129.787515 16.1141121,129.666454 C16.0990304,129.630846 16.0990304,129.630846 16.0874469,129.602205 C16.0872551,129.601732 16.0872551,129.601732 16.0870642,129.60126 C16.0724404,129.56529 16.0724404,129.56529 16.0638677,129.546147 C15.9492269,129.301262 15.8127928,129.067804 15.6562318,128.848217 C15.644224,128.831941 15.644224,128.831941 15.6211378,128.8028 C15.6206684,128.80221 15.6206684,128.80221 15.6201954,128.801615 C15.6013732,128.777951 15.6013732,128.777951 15.5781824,128.747809 C15.4989145,128.643067 15.4555726,128.587811 15.4078679,128.532218 C15.3939041,128.515942 15.3829348,128.504004 15.3470355,128.465766 C15.3460587,128.464728 15.3460587,128.464728 15.3450753,128.463683 C15.3251888,128.442543 15.3251888,128.442543 15.3030585,128.418652 C15.2215829,128.330068 15.1794584,128.285628 15.1326649,128.240044 C15.111304,128.219238 15.0942211,128.203589 15.0446805,128.159082 L15.0446505,128.159055 C15.0280602,128.144166 15.0280602,128.144166 15.0105099,128.128331 C14.9350618,128.060067 14.8834908,128.015023 14.8322724,127.973381 C14.801285,127.948176 14.7716552,127.925408 14.7117873,127.880382 C14.7043612,127.874797 14.7043612,127.874797 14.6968612,127.869157 C14.6274162,127.816934 14.5667396,127.773306 14.5085322,127.734077 C14.465505,127.70508 14.4188259,127.675168 14.3624357,127.640249 C14.2970249,127.59977 14.2307458,127.561084 14.163183,127.523956 C14.1061507,127.492599 14.0559977,127.466094 14.0081614,127.442191 C13.9459108,127.411081 13.8782531,127.379859 13.7972046,127.344509 C13.7964587,127.344184 13.7964587,127.344184 13.7957137,127.343859 C13.7863081,127.339759 13.7863081,127.339759 13.777046,127.335724 C13.7109273,127.306924 13.6742364,127.291429 13.6362414,127.276597 C13.574997,127.252692 13.5106565,127.230236 13.411266,127.197465 C13.3738705,127.184805 13.3738705,127.184805 13.3437673,127.174097 C13.343001,127.173825 13.343001,127.173825 13.3422399,127.173554 C13.3033965,127.159824 13.2939062,127.156601 13.2805688,127.152661 L12.2297851,126.842276 L13.1528095,126.251927 C13.7690698,125.857779 14.1493506,125.1815 14.1493506,124.441558 C14.1493506,123.256814 13.1847444,122.292208 12,122.292208 C10.8152556,122.292208 9.85064935,123.256814 9.85064935,124.441558 C9.85064935,125.1815 10.2309302,125.857779 10.8471904,126.251927 L11.7702149,126.842276 L10.7194312,127.152661 C10.7060938,127.156601 10.6966034,127.159824 10.65776,127.173554 C10.656999,127.173825 10.656999,127.173825 10.6562327,127.174097 C10.6261295,127.184805 10.6261295,127.184805 10.5885762,127.197517 C10.4893434,127.230236 10.425003,127.252692 10.3637816,127.276588 C10.3257636,127.291429 10.2890726,127.306924 10.2229539,127.335724 C10.2136919,127.339759 10.2136919,127.339759 10.2042862,127.343859 C10.2035413,127.344184 10.2035413,127.344184 10.2029084,127.34446 C10.1217476,127.379858 10.0540895,127.411081 9.99181007,127.442205 C9.94400195,127.466094 9.89384842,127.4926 9.83672679,127.524005 C9.76925421,127.561084 9.7029751,127.59977 9.63768144,127.640176 C9.5811747,127.675167 9.5344953,127.70508 9.49147921,127.734069 C9.43326032,127.773306 9.37258377,127.816934 9.30317722,127.869128 C9.29563878,127.874797 9.29563878,127.874797 9.28821263,127.880382 C9.22834475,127.925407 9.19871493,127.948176 9.16764502,127.973448 C9.11650917,128.015023 9.06493785,128.060067 8.98948316,128.128337 C8.97193997,128.144166 8.97193997,128.144166 8.95534951,128.159055 L8.95531611,128.159085 C8.90577739,128.203591 8.88869526,128.219239 8.86736001,128.24002 C8.8205417,128.285628 8.77841744,128.330067 8.69702484,128.418561 C8.67481115,128.442543 8.67481115,128.442543 8.65492462,128.463683 C8.65394128,128.464728 8.65394128,128.464728 8.6529645,128.465766 C8.61706513,128.504004 8.60609585,128.515942 8.59210611,128.532248 C8.54442739,128.587811 8.50108507,128.643067 8.42181051,128.747818 C8.39862683,128.777951 8.39862683,128.777951 8.37980458,128.801615 C8.37933158,128.80221 8.37933158,128.80221 8.37886209,128.8028 C8.3557759,128.831941 8.3557759,128.831941 8.34377495,128.848207 C8.18720715,129.067804 8.05077303,129.301262 7.93612587,129.54616 C7.92755952,129.56529 7.92755952,129.56529 7.91293569,129.60126 C7.91274485,129.601732 7.91274485,129.601732 7.91255309,129.602205 C7.90096963,129.630846 7.90096963,129.630846 7.88589505,129.666437 C7.83346802,129.787515 7.80629269,129.853491 7.78097804,129.923716 C7.77344782,129.944602 7.76825515,129.960783 7.75198814,130.01346 C7.75141492,130.015322 7.75141492,130.015322 7.75083665,130.017201 C7.74231618,130.044864 7.74231618,130.044864 7.73252674,130.075788 C7.69544973,130.191386 7.6769359,130.252471 7.65994156,130.318164 C7.65224313,130.347873 7.64701384,130.371128 7.63254285,130.438712 C7.63117851,130.445105 7.63117851,130.445105 7.62978903,130.451608 C7.62602553,130.469191 7.62602553,130.469191 7.62207066,130.487424 C7.61228003,130.530805 7.61228003,130.530805 7.60359849,130.566727 C7.60348728,130.567187 7.60348728,130.567187 7.6033764,130.567647 C7.59128524,130.618077 7.58824157,130.631587 7.5849199,130.650153 L7.4087632,131.634739 L6.72691754,130.902942 C5.49011655,129.575535 4.7987013,127.821674 4.7987013,126 C4.7987013,122.028799 8.02879877,118.798701 12,118.798701 C15.9712012,118.798701 19.2012987,122.028799 19.2012987,126 C19.2012987,127.821674 18.5098834,129.575535 17.2730824,130.902942 L16.5912369,131.634738 L16.4150801,130.650153 Z M22.9090909,126.967532 C22.375136,126.967532 21.9415584,126.533955 21.9415584,126 C21.9415584,125.466045 22.375136,125.032468 22.9090909,125.032468 C23.4430458,125.032468 23.8766234,125.466045 23.8766234,126 C23.8766234,126.533955 23.4430458,126.967532 22.9090909,126.967532 Z" id="Shape"></path>
                </g>
            </g>
        </g>
    </g>
</svg>