<?xml version="1.0" encoding="UTF-8"?>
<svg width="17px" height="20px" viewBox="0 0 17 20" version="1.1" xmlns="http://www.w3.org/2000/svg" xmlns:xlink="http://www.w3.org/1999/xlink">
    <!-- Generator: Sketch 59 (86127) - https://sketch.com -->
    <title>Shape</title>
    <desc>Created with Sketch.</desc>
    <g id="Page-2---Raw-Materials" stroke="none" stroke-width="1" fill="none" fill-rule="evenodd">
        <g id="DetergentDB-02-RawMaterials-01-Overview-03-HOVER" transform="translate(-1208.000000, -235.000000)" fill="#646464" fill-rule="nonzero">
            <g id="file_search" transform="translate(1208.000000, 235.000000)">
                <path d="M12.3214286,5.76785714 L12.3214286,4.26785714 C12.3214286,4.13035714 12.2410714,4.01785714 12.1428571,4.01785714 L3.57142857,4.01785714 C3.47321429,4.01785714 3.39285714,4.13035714 3.39285714,4.26785714 L3.39285714,5.76785714 C3.39285714,5.90535714 3.47321429,6.01785714 3.57142857,6.01785714 L12.1428571,6.01785714 C12.2410714,6.01785714 12.3214286,5.90535714 12.3214286,5.76785714 Z M3.57142857,7.23214286 C3.47321429,7.23214286 3.39285714,7.34464286 3.39285714,7.48214286 L3.39285714,8.98214286 C3.39285714,9.11964286 3.47321429,9.23214286 3.57142857,9.23214286 L7.67857143,9.23214286 C7.77678571,9.23214286 7.85714286,9.11964286 7.85714286,8.98214286 L7.85714286,7.48214286 C7.85714286,7.34464286 7.77678571,7.23214286 7.67857143,7.23214286 L3.57142857,7.23214286 Z M6.78571429,17.3214286 L1.60714286,17.3214286 L1.60714286,1.60714286 L14.1071429,1.60714286 L14.1071429,9.28571429 C14.1071429,9.38392857 14.1875,9.46428571 14.2857143,9.46428571 L15.5357143,9.46428571 C15.6339286,9.46428571 15.7142857,9.38392857 15.7142857,9.28571429 L15.7142857,0.714285714 C15.7142857,0.319196429 15.3950893,0 15,0 L0.714285714,0 C0.319196429,0 0,0.319196429 0,0.714285714 L0,18.2142857 C0,18.609375 0.319196429,18.9285714 0.714285714,18.9285714 L6.78571429,18.9285714 C6.88392857,18.9285714 6.96428571,18.8482143 6.96428571,18.75 L6.96428571,17.5 C6.96428571,17.4017857 6.88392857,17.3214286 6.78571429,17.3214286 Z M16.734375,18.4709821 L14.6517857,16.3883929 C15.1495536,15.7299107 15.4464286,14.9084821 15.4464286,14.0178571 C15.4464286,11.8482143 13.6875,10.0892857 11.5178571,10.0892857 C9.34821429,10.0892857 7.58928571,11.8482143 7.58928571,14.0178571 C7.58928571,16.1875 9.34821429,17.9464286 11.5178571,17.9464286 C12.3169643,17.9464286 13.0580357,17.7075893 13.6785714,17.2991071 L15.7924107,19.4129464 C15.828125,19.4486607 15.8727679,19.4642857 15.9174107,19.4642857 C15.9620536,19.4642857 16.0089286,19.4464286 16.0424107,19.4129464 L16.734375,18.7209821 C16.7676347,18.6878873 16.7863336,18.642902 16.7863336,18.5959821 C16.7863336,18.5490623 16.7676347,18.504077 16.734375,18.4709821 L16.734375,18.4709821 Z M11.5178571,16.5178571 C10.1361607,16.5178571 9.01785714,15.3995536 9.01785714,14.0178571 C9.01785714,12.6361607 10.1361607,11.5178571 11.5178571,11.5178571 C12.8995536,11.5178571 14.0178571,12.6361607 14.0178571,14.0178571 C14.0178571,15.3995536 12.8995536,16.5178571 11.5178571,16.5178571 Z" id="Shape"></path>
            </g>
        </g>
    </g>
</svg>