<?xml version="1.0" encoding="UTF-8"?>
<svg width="40px" height="40px" viewBox="0 0 40 40" version="1.1" xmlns="http://www.w3.org/2000/svg" xmlns:xlink="http://www.w3.org/1999/xlink">
    <!-- Generator: Sketch 59 (86127) - https://sketch.com -->
    <title>Icon Account</title>
    <desc>Created with Sketch.</desc>
    <g id="Page-2---Raw-Materials" stroke="none" stroke-width="1" fill="none" fill-rule="evenodd">
        <g id="DetergentDB-02-RawMaterials-01-Overview-01" transform="translate(-1302.000000, -12.000000)">
            <g id="HEADER---1366" transform="translate(60.000000, 0.000000)">
                <g id="Icon-Account" transform="translate(1242.000000, 12.000000)">
                    <circle id="Oval" fill="#D2D2D2" cx="20" cy="20" r="20"></circle>
                    <path d="M26.7539031,25.1206178 C26.8861779,26.8552896 27.3822085,27.522471 28.0435826,28.4565251 C28.3081322,28.856834 28.671888,29.2571429 29.0356437,29.6240927 C25.8279793,31.7590734 22.2565592,33.4603861 18.4205894,34.5945946 C18.4205894,34.5945946 18.4205894,34.5945946 18.4205894,34.5612355 C18.1560397,33.0934363 17.8584214,31.6256371 17.4285282,30.224556 C17.0978412,29.1570656 16.8663602,27.8560618 15.775093,27.2555985 C14.6838257,26.6551351 13.3610775,27.0888031 12.2036728,27.1555212 C10.2526192,27.2222394 10.1203444,26.4216216 10.054207,25.9212355 C9.98806955,25.3874903 10.0211383,24.8537452 10.0211383,24.6202317 C10.0211383,24.3867181 9.82272603,24.2532819 9.6573825,24.0197683 C9.49203898,23.7862548 9.78965732,23.1857915 9.78965732,23.1857915 C9.09521451,23.0189961 8.9960084,22.6854054 8.96293969,22.5519691 C8.96293969,22.4185328 9.06214581,22.0849421 9.12828322,21.7179923 C9.22748933,21.3510425 9.16135192,21.2176062 8.53304652,21.0841699 C8.20235947,21.0174517 7.93780983,20.8840154 7.7393976,20.6171429 C7.64019148,20.4837066 7.54098537,20.3502703 7.57405407,20.1834749 C7.57405407,19.9833205 7.87167242,19.6163707 7.97087854,19.4162162 C8.16929077,19.0826255 8.46690911,18.6489575 8.46690911,18.6489575 C8.66532135,18.3153668 9.19442063,17.4480309 9.45897027,17.1811583 C9.69045121,16.9142857 9.85579473,16.4806178 9.88886344,16.113668 C9.92193214,15.7467181 9.69045121,15.0461776 9.69045121,14.5791506 C9.72351991,14.0454054 9.92193214,13.4783012 10.0872757,12.9779151 C10.2856879,12.4108108 10.3187566,11.8103475 10.5171688,11.2432432 C11.2116116,8.87474903 12.9973217,6.83984556 15.4113372,5.97250965 C16.6018106,5.60555985 17.9576275,5.43876448 19.247307,5.40540541 C19.5779941,5.40540541 19.9086811,5.40540541 20.2393682,5.40540541 C21.5621164,5.47212355 22.8848646,5.67227799 24.1414754,6.07258687 C25.6957045,6.60633205 27.1507276,7.47366795 28.2089261,8.70795367 C28.9364376,9.5419305 29.4655369,10.4759846 29.796224,11.5101158 C30.9205599,15.0128185 29.9284988,19.0492664 28.0435826,22.1183012 C27.4814146,23.0857143 26.6877657,24.0531274 26.7539031,25.1206178 Z" id="Path" fill="#FFFFFF" fill-rule="nonzero"></path>
                </g>
            </g>
        </g>
    </g>
</svg>