<svg xmlns="http://www.w3.org/2000/svg" width="129" height="33" viewBox="0 0 129 33">
    <g fill="none" fill-rule="evenodd">
        <path fill="#FFF" d="M68.839.026c1.62 0 3.375.298 4.607.71l-.524 4.196a14.32 14.32 0 0 0-3.877-.527c-3.284 0-4.059 1.123-4.059 4.494 0 3.553.844 4.677 4.105 4.677a10.5 10.5 0 0 0 3.831-.711l.57 3.942c-1.438.644-3.352 1.056-5.11 1.056-5.926 0-9.027-3.118-9.027-8.988 0-5.433 2.918-8.85 9.484-8.85zm-60.27.32V6.79h1.71L14.406.346h6.133l-5.585 8.14 5.905 9.056h-6.5l-4.149-6.716H8.57v6.716H3.232V.346H8.57zm103.45.001h7.684c4.913 0 7.572 1.78 7.68 5.448l.004.237-.004.237c-.072 2.04-1.077 3.776-2.796 4.497l-.21.081 4.377 6.694h-6.292l-2.895-5.661h-2.212v5.661h-5.336V.347h7.684zm-61.885 0c5.016 0 7.683 1.857 7.683 5.685l-.004.237c-.075 2.122-1.158 3.915-3.005 4.578l4.378 6.694h-6.293l-2.896-5.661h-2.21v5.661h-5.338V.347zm58.99 0l.092 4.287h-8.414v2.293h6.956v3.76h-6.956V13.3h8.754l-.091 4.24h-14V.347h13.659zm-27.862 0v6.35h5.677V.347h5.313V17.54h-5.313v-6.464h-5.677v6.464h-5.336V.347h5.336zm-47.422 0l6.932 17.194h-5.996l-.89-2.888h-6.43l-.911 2.888h-5.686L27.661.346h6.18zm-3.077 4.035h-.068l-.526 1.788-1.437 4.494h3.923l-1.39-4.494-.502-1.788zm88.85-.023h-2.258v3.92h2.235c1.573 0 2.211-.412 2.211-2.04 0-1.445-.547-1.88-2.188-1.88zm-69.57 0h-2.257v3.92h2.233c1.574 0 2.213-.412 2.213-2.04 0-1.445-.549-1.88-2.19-1.88zM25.31.34v3.647h-3.971V.341h3.97zm14.883 0v3.647H36.22V.341h3.972z"/>
        <path fill="#FAE016" d="M.81 32.905h125.522V22.71H.811z"/>
    </g>
</svg>
